<svg fill="none" height="24" viewBox="0 0 24 24" width="24" xmlns="http://www.w3.org/2000/svg"><g fill="#292d32"><path d="m18.19 17.75h-10.65001c-.99 0-1.94-.42-2.61-1.15s-1.00999-1.71-.92999-2.7l.83-9.96c.03-.31-.08001-.60999-.29001-.83999s-.49999-.35001-.80999-.35001h-1.73c-.41 0-.75-.34-.75-.75s.34-.75.75-.75h1.74001c.73 0 1.41998.31 1.90998.84.27.3.47001.65.58001 1.04h12.49c1.01 0 1.94.4 2.62 1.12.67.73 1.01 1.68.93 2.69l-.54 7.5c-.11 1.83-1.71 3.31-3.54 3.31zm-11.91-13.13-.78 9.4c-.05.58.14 1.13.53 1.56s.92999.66 1.50999.66h10.65001c1.04 0 1.98-.88 2.06-1.92l.54-7.49999c.04-.59-.15-1.15-.54-1.56-.39-.42-.93-.65002-1.52-.65002h-12.45z"/><path d="m16.25 22.75c-1.1 0-2-.9-2-2s.9-2 2-2 2 .9 2 2-.9 2-2 2zm0-2.5c-.28 0-.5.22-.5.5s.22.5.5.5.5-.22.5-.5-.22-.5-.5-.5z"/><path d="m8.25 22.75c-1.1 0-2-.9-2-2s.9-2 2-2 2 .9 2 2-.9 2-2 2zm0-2.5c-.28 0-.5.22-.5.5s.22.5.5.5.5-.22.5-.5-.22-.5-.5-.5z"/><path d="m21 8.75h-12c-.41 0-.75-.34-.75-.75s.34-.75.75-.75h12c.41 0 .75.34.75.75s-.34.75-.75.75z"/></g></svg>